<?xml version="1.0"?>
<svg xmlns="http://www.w3.org/2000/svg" xmlns:xlink="http://www.w3.org/1999/xlink" version="1.1" id="Capa_1" x="0px" y="0px" viewBox="0 0 511.999 511.999" style="enable-background:new 0 0 511.999 511.999;" xml:space="preserve" width="512px" height="512px"><g><g>
	<g>
		<path d="M110.167,383.98c-10.617-22.529-35.232-35.1-48.96-40.593c2.72-4.663,5.018-9.65,6.833-14.997    c3.87-11.399,4.97-23.428,3.271-35.749c-0.566-4.104-4.369-6.969-8.454-6.405c-4.104,0.566-6.972,4.352-6.405,8.454    c1.378,9.991,0.498,19.708-2.614,28.879C47.062,343.525,32.27,357.764,9.87,365.89C3.967,368.032,0,373.714,0,380.029v51.161    c0,4.143,3.357,7.5,7.5,7.5s7.5-3.357,7.5-7.5l-0.015-51.198c15.335-5.564,27.719-13.609,37.081-24.029    c10.269,3.711,35.138,14.477,44.534,34.412c5.314,11.276,4.852,23.633-1.416,37.777c-1.679,3.786,0.031,8.217,3.818,9.895    c0.987,0.438,2.019,0.646,3.034,0.646c2.876,0,5.62-1.664,6.86-4.464C116.92,416.122,117.348,399.215,110.167,383.98z" data-original="#000000" class="active-path" data-old_color="#000000" fill="#FFFFFF"/>
	</g>
</g><g>
	<g>
		<path d="M205.827,74.779c-3.156-0.446-6.122-0.776-9.065-1.008c-38.948-3.075-76.652,9.111-106.169,34.305    c-29.514,25.191-47.473,60.515-50.569,99.463c-1.462,18.383,0.521,36.599,5.891,54.143c0.988,3.23,3.958,5.307,7.168,5.307    c0.728,0,1.467-0.106,2.198-0.33c3.961-1.213,6.188-5.406,4.977-9.367c-4.816-15.731-6.593-32.07-5.281-48.563    c5.71-71.837,68.774-125.68,140.606-120.004c2.634,0.208,5.298,0.504,8.146,0.906c4.093,0.583,7.896-2.274,8.475-6.377    C212.784,79.153,209.929,75.358,205.827,74.779z" data-original="#000000" class="active-path" data-old_color="#000000" fill="#FFFFFF"/>
	</g>
</g><g>
	<g>
		<path d="M511.803,227.549c-5.586-34.722-38.753-58.864-98.577-71.758c-4.047-0.866-8.039,1.703-8.912,5.752    c-0.872,4.049,1.703,8.039,5.752,8.912c53.175,11.46,82.422,31.471,86.929,59.478c0.009,0.057,0.026,0.163-0.102,0.313    c-0.114,0.134-0.26,0.202-0.434,0.202H260.606c-0.101,0-0.289,0-0.443-0.244c-0.154-0.245-0.073-0.415-0.03-0.506l32.714-68.557    c0.086-0.182,0.255-0.292,0.45-0.298c12.757-0.324,46.401-0.589,83.242,4.012c4.118,0.509,7.859-2.402,8.372-6.513    s-2.403-7.858-6.513-8.372c-25.864-3.229-50.177-4.124-67.164-4.261c-15.218-26.04-38.499-47.107-65.887-59.484    c-3.778-1.703-8.218-0.028-9.924,3.746c-1.705,3.775-0.028,8.218,3.746,9.924c21.907,9.899,40.893,25.999,54.435,45.937    c-0.231,0.005-0.472,0.011-0.691,0.016c-5.864,0.15-11.078,3.535-13.605,8.834l-32.714,68.558    c-2.308,4.838-1.978,10.434,0.883,14.968c0.04,0.063,0.084,0.122,0.124,0.184c-2.33,4.505-2.411,10.039,0.256,14.769l3.231,5.728    c2.748,4.87,7.929,7.896,13.521,7.896h42.479c-4.616,11.801-10.918,22.836-18.803,32.89c-0.029,0.037-0.05,0.079-0.078,0.116    c-0.06,0.079-0.124,0.153-0.181,0.235c-0.227,0.326-23.575,32.694-101.422,36.904c-4.136,0.224-7.308,3.758-7.084,7.895    c0.217,3.998,3.526,7.095,7.482,7.095c0.137,0,0.274-0.004,0.412-0.011c51.274-2.773,81.356-17.361,97.413-28.864    c-9.632,76.966-39.969,101.801-40.476,102.204c-3.264,2.511-3.895,7.188-1.403,10.476c1.475,1.945,3.715,2.969,5.982,2.969    c1.578,0,3.17-0.496,4.525-1.523c1.663-1.261,40.543-31.799,48.045-130.067c9.316-12.269,16.559-25.809,21.571-40.316H434.91    c1.317,0,31.128-0.266,41.341-21.336h20.207c4.568,0,8.889-1.996,11.853-5.476C511.247,236.526,512.52,231.998,511.803,227.549z     M434.911,251.783H264.609c-0.188,0-0.363-0.103-0.456-0.267l-3.23-5.726c-0.073-0.129-0.081-0.244-0.063-0.344h196.153    C448.325,251.614,435.072,251.782,434.911,251.783z" data-original="#000000" class="active-path" data-old_color="#000000" fill="#FFFFFF"/>
	</g>
</g><g>
	<g>
		<path d="M306.911,172.679h-0.752c-4.143,0-7.5,3.357-7.5,7.5s3.357,7.5,7.5,7.5h0.752c4.143,0,7.5-3.357,7.5-7.5    S311.054,172.679,306.911,172.679z" data-original="#000000" class="active-path" data-old_color="#000000" fill="#FFFFFF"/>
	</g>
</g><g>
	<g>
		<path d="M216.044,376.02h-0.752c-4.143,0-7.5,3.357-7.5,7.5s3.357,7.5,7.5,7.5h0.752c4.143,0,7.5-3.357,7.5-7.5    S220.187,376.02,216.044,376.02z" data-original="#000000" class="active-path" data-old_color="#000000" fill="#FFFFFF"/>
	</g>
</g><g>
	<g>
		<path d="M230.138,392.678h-0.752c-4.143,0-7.5,3.357-7.5,7.5s3.357,7.5,7.5,7.5h0.752c4.143,0,7.5-3.357,7.5-7.5    S234.28,392.678,230.138,392.678z" data-original="#000000" class="active-path" data-old_color="#000000" fill="#FFFFFF"/>
	</g>
</g><g>
	<g>
		<path d="M219.851,150.861c-13.055,0-23.676,10.621-23.676,23.676s10.621,23.676,23.676,23.676s23.676-10.621,23.676-23.676    S232.906,150.861,219.851,150.861z M219.851,183.213c-4.784,0-8.676-3.892-8.676-8.676s3.891-8.676,8.676-8.676    c4.784,0,8.676,3.892,8.676,8.676S224.635,183.213,219.851,183.213z" data-original="#000000" class="active-path" data-old_color="#000000" fill="#FFFFFF"/>
	</g>
</g></g> </svg>
